<svg width="125" height="56" viewBox="0 0 125 56" fill="none" xmlns="http://www.w3.org/2000/svg">
<g clip-path="url(#clip0_1_13751)">
<path fill-rule="evenodd" clip-rule="evenodd" d="M16.0027 25.1024C16.143 24.4019 16.1901 23.2818 16.2371 21.7415H16.9853C17.0323 22.7684 17.0793 23.4219 17.1727 23.6083C17.2197 23.7953 17.4534 23.9816 17.7342 24.1687C18.0612 24.4019 18.4824 24.589 19.0438 24.776C19.5583 24.9161 20.0728 25.0093 20.5872 25.0093C21.3361 25.0093 21.991 24.8222 22.5988 24.4958C23.2066 24.1694 23.6747 23.7021 23.9547 23.1887C24.2314 22.6379 24.3756 22.0304 24.3759 21.4143C24.3749 20.9836 24.2957 20.5567 24.1421 20.1542C24.0018 19.8277 23.8151 19.5475 23.5336 19.3143C23.1993 19.1186 22.8362 18.9768 22.4577 18.894C21.9142 18.8023 21.3684 18.7242 20.8209 18.66C20.0257 18.5668 19.3239 18.4267 18.7624 18.3336C18.0142 18.0996 17.4527 17.8194 17.1257 17.493C16.7516 17.2128 16.4708 16.7932 16.2371 16.279C16.0027 15.7656 15.9093 15.2521 15.9093 14.6448C15.9093 13.8042 16.1438 13.0112 16.5642 12.2638C17.0469 11.4891 17.7461 10.8724 18.5757 10.4894C19.4179 10.0691 20.3998 9.88281 21.4287 9.88281C22.0366 9.88281 22.6914 9.92903 23.4403 10.1161C24.1414 10.2562 24.8433 10.5364 25.4518 10.8159C25.37 11.2486 25.3074 11.6847 25.2644 12.123C25.2181 12.4963 25.2181 13.1037 25.1711 13.8504H24.4229C24.4229 12.7296 24.3759 12.123 24.3295 12.0298C24.1398 11.7399 23.883 11.4999 23.5806 11.33C22.8325 10.9097 22.0843 10.6765 21.2421 10.6765C20.2131 10.6765 19.3716 11.0029 18.7168 11.6102C18.1083 12.2638 17.7812 13.1044 17.7812 14.0844C17.7812 14.6917 17.9216 15.2052 18.1553 15.5316C18.342 15.858 18.7631 16.1382 19.3246 16.3252C19.7457 16.4653 20.4005 16.6054 21.2891 16.6986C22.1783 16.8387 23.0199 16.9788 23.7217 17.1189C24.4236 17.3059 24.9381 17.5392 25.2651 17.8187C25.5466 18.0989 25.8266 18.4722 26.0603 18.9395C26.2477 19.4067 26.3411 19.9195 26.3411 20.5268C26.3411 22.021 25.7796 23.2811 24.5633 24.355C23.3469 25.4289 21.8035 25.9892 19.9324 25.9892C18.5721 25.9945 17.2284 25.6912 16.0027 25.1024ZM27.4626 10.8642V10.1637C28.6319 10.2107 29.7542 10.2107 30.7838 10.2107C31.8135 10.2107 32.7953 10.2107 33.8243 10.1637V10.8642C32.982 10.8642 32.4676 10.9104 32.3272 10.9574C32.1405 11.0505 32.0001 11.0975 31.9531 11.2376C31.8598 11.3777 31.7657 11.7041 31.7657 12.2645C31.7657 12.4515 31.7187 13.4785 31.6724 15.3922V19.4074C31.6724 20.9478 31.8127 22.0217 31.9994 22.4882C32.1845 22.9887 32.5091 23.426 32.935 23.7484C33.2621 23.9816 33.7302 24.1687 34.2917 24.3088C34.8532 24.4951 35.461 24.542 36.1629 24.542C36.9581 24.542 37.7062 24.4489 38.3148 24.2618C38.9233 24.0286 39.3907 23.7953 39.7178 23.5151C40.0448 23.2349 40.2793 22.9085 40.4189 22.5351C40.5593 22.2087 40.6997 21.6952 40.7467 21.0879C40.84 20.4806 40.8871 19.6876 40.8871 18.7539V15.3929C40.8871 14.4122 40.8408 13.4322 40.7937 12.4985C40.7937 11.7987 40.7474 11.3784 40.6534 11.2383C40.5284 11.1237 40.3863 11.0291 40.2322 10.9581C40.0919 10.9112 39.5774 10.8649 38.7352 10.8649V10.1637C39.9515 10.2107 40.793 10.2107 41.3545 10.2107C41.8697 10.2107 42.7582 10.2107 44.0679 10.1637V10.8642C43.2257 10.8642 42.7112 10.9104 42.5245 10.9574C42.3835 11.0269 42.2567 11.1219 42.1504 11.2376C42.0571 11.3777 42.01 11.7041 42.01 12.2645C41.9637 12.4515 41.9167 13.4785 41.9167 15.3922V19.0334C41.9167 20.807 41.7763 22.0679 41.5426 22.8146C41.2619 23.5144 40.7944 24.1217 40.1396 24.6821C39.6251 25.1017 39.0166 25.3819 38.2221 25.6159C37.3712 25.8639 36.4893 25.9896 35.6028 25.9892C34.4805 25.9892 33.4979 25.8491 32.6557 25.5682C31.8605 25.288 31.2056 24.9616 30.7852 24.5413C30.3641 24.0748 30.0834 23.6545 29.896 23.1873C29.7086 22.5806 29.6152 21.5999 29.6152 20.1997V15.3915C29.6152 14.4108 29.5689 13.4308 29.5219 12.4971C29.5219 11.7973 29.4756 11.377 29.3815 11.2369C29.2882 11.1437 29.1478 11.0498 29.0074 10.9567C28.8193 10.9104 28.3041 10.8642 27.4626 10.8642ZM45.7987 25.6621V25.0555C46.1112 24.9333 46.4093 24.7768 46.6872 24.589C46.7813 24.4951 46.8276 24.4019 46.8746 24.3088C46.9217 24.1217 46.9687 23.7014 46.9687 23.0016C47.015 22.021 47.062 21.4143 47.062 21.2273V15.3915C47.062 14.4108 47.0157 13.4308 46.9687 12.4971C46.9687 11.7973 46.9217 11.377 46.8283 11.2369C46.735 11.1437 46.6409 11.0498 46.4542 10.9567C46.2675 10.9097 45.7531 10.8635 44.9108 10.8635V10.1637C46.6879 10.2107 47.8109 10.2107 48.232 10.2107C48.6995 10.2107 49.7284 10.2107 51.3651 10.1637V10.8642C50.4766 10.8642 49.9621 10.9104 49.7754 10.9574C49.588 11.0505 49.4484 11.0975 49.4013 11.2376C49.308 11.3777 49.261 11.7041 49.2139 12.2645C49.2139 12.4515 49.2139 13.4785 49.1676 15.3922V22.6745C49.1676 23.4682 49.1676 24.0755 49.2139 24.542C50.0562 24.589 50.8514 24.6352 51.6929 24.6352C53.7044 24.6352 55.1545 24.4951 55.9497 24.2149C56.043 24.0286 56.1371 23.7477 56.2304 23.4682L56.6508 21.6945H57.3997C57.2593 22.7677 57.0719 24.0755 56.9323 25.522C56.6508 25.5682 56.4171 25.6159 56.2304 25.6159C55.8563 25.6159 55.2485 25.6614 54.4526 25.6614L47.9506 25.5682C47.2487 25.569 46.5469 25.6166 45.7987 25.6621ZM59.4568 25.6621V25.0555C59.925 24.8685 60.205 24.6821 60.3461 24.589C60.4394 24.4951 60.4865 24.4019 60.4865 24.3088C60.5798 24.1217 60.6269 23.7014 60.6269 23.0016C60.6732 22.021 60.7202 21.4143 60.7202 21.2273V15.3915C60.7202 14.4108 60.6732 13.4308 60.6269 12.4971C60.6269 11.7973 60.5805 11.377 60.4865 11.2369C60.3931 11.1437 60.2991 11.0498 60.1124 10.9567C59.9257 10.9097 59.4105 10.8635 58.569 10.8635V10.1637C60.3468 10.2107 61.4691 10.2107 61.8902 10.2107C62.3576 10.2107 63.3866 10.2107 65.0247 10.1637V10.8642C64.1354 10.8642 63.6203 10.9104 63.4343 10.9574C63.2462 11.0505 63.1072 11.0975 63.0602 11.2376C62.9669 11.3777 62.9198 11.7041 62.8728 12.2645C62.8728 12.4515 62.8265 13.4785 62.8265 15.3922V22.6745C62.8265 23.4682 62.8265 24.0755 62.8728 24.542C63.7158 24.589 64.5102 24.6352 65.3518 24.6352C67.3626 24.6352 68.8126 24.4951 69.6078 24.2149C69.7026 24.0286 69.7959 23.7477 69.8893 23.4682L70.3111 21.6945H71.0586C70.9196 22.7677 70.7315 24.0755 70.5912 25.522C70.3111 25.5682 70.0774 25.6159 69.89 25.6159C69.5159 25.6159 68.9074 25.6614 68.1129 25.6614L61.6109 25.5682C60.9069 25.569 60.205 25.6166 59.4568 25.6621ZM78.7748 24.9623V25.6621C77.2314 25.6166 76.2488 25.569 75.7336 25.569L72.4131 25.6621V24.9623C73.2554 24.9161 73.7698 24.8692 73.9565 24.8222C74.0971 24.7733 74.2249 24.6936 74.3306 24.589C74.3776 24.4019 74.471 24.0755 74.471 23.5151C74.471 23.375 74.518 22.3481 74.5643 20.4336V15.3922C74.5643 14.4115 74.5187 13.4315 74.471 12.4978C74.471 11.798 74.424 11.3777 74.3306 11.2376C74.2059 11.1229 74.0641 11.0284 73.9102 10.9574C73.7698 10.9104 73.2547 10.8642 72.4124 10.8642V10.1637C73.7691 10.2107 74.8451 10.2107 75.594 10.2107C76.3414 10.2107 77.3711 10.2107 78.7741 10.1637V10.8642C77.9318 10.8642 77.4174 10.9104 77.2307 10.9574C77.0426 11.0505 76.9492 11.0975 76.8566 11.2376C76.811 11.3777 76.7162 11.7041 76.7162 12.2645C76.7162 12.4515 76.6706 13.4785 76.6229 15.3922V20.4336C76.6229 21.4136 76.6699 22.3481 76.6699 23.3281C76.7155 23.9816 76.7633 24.4019 76.8103 24.542C76.9089 24.6861 77.0596 24.7865 77.2307 24.8222C77.4181 24.8692 77.9333 24.9161 78.7748 24.9623ZM87.0546 25.7567C86.8679 25.1024 86.4005 23.8892 85.6979 22.1148L82.0026 12.9181C81.5822 11.9381 81.3485 11.3777 81.2538 11.2376C81.2082 11.1444 81.1148 11.0975 80.9737 11.0505C80.8334 10.9574 80.4115 10.9104 79.7574 10.8642V10.1637C81.1141 10.2107 82.0953 10.2107 82.7038 10.2107C83.3123 10.2107 84.2942 10.2107 85.6972 10.1637V10.8642C84.8094 10.8642 84.2942 10.9104 84.1538 10.9104C84.0135 10.9574 83.9201 10.9574 83.8738 11.0505C83.8241 11.102 83.7911 11.1671 83.779 11.2376C83.779 11.3315 83.8261 11.5178 83.9671 11.8449C84.1962 12.65 84.4613 13.4445 84.7616 14.2259L88.1769 22.816L91.0299 15.7193C91.4503 14.6924 91.8244 13.5716 92.1992 12.3584C92.3874 11.8449 92.433 11.5178 92.433 11.3784C92.433 11.2383 92.3396 11.0982 92.1529 11.0513C92.0126 11.005 91.4503 10.9112 90.4692 10.8649V10.1637C91.5907 10.2107 92.3866 10.2107 92.9481 10.2107C93.5096 10.2107 94.3048 10.2107 95.2874 10.1637V10.8642C94.7723 10.8642 94.4452 10.9104 94.3048 10.9574C94.2115 11.0036 94.1167 11.0975 94.0234 11.2838C93.93 11.377 93.6963 11.9843 93.1811 13.0582L89.8129 21.4143L88.9707 23.562C88.784 23.9816 88.6436 24.3557 88.5032 24.6828C88.4099 24.963 88.3166 25.3364 88.1762 25.7567H87.0546ZM98.3272 12.9643L101.041 19.5468H95.5219L98.3272 12.9643ZM92.7614 25.569C93.4156 25.569 94.3048 25.6159 95.5675 25.6621V24.9623C94.8663 24.9161 94.3982 24.9161 94.1174 24.8222C93.9771 24.8222 93.8374 24.7291 93.7433 24.6359C93.6852 24.5716 93.652 24.4886 93.65 24.4019C93.65 24.1687 93.7904 23.7953 93.9771 23.2818L95.1478 20.4806H101.462L102.818 23.8422C102.912 24.0762 102.959 24.3095 102.959 24.4496C102.957 24.5365 102.923 24.6197 102.864 24.6835C102.818 24.7767 102.677 24.8229 102.491 24.8699C102.351 24.9168 101.836 24.9168 101.041 24.963V25.6628L104.548 25.5697C104.97 25.5697 105.765 25.6166 106.888 25.6628V24.963C106.327 24.9168 105.953 24.8699 105.812 24.8229C105.624 24.7298 105.485 24.5427 105.344 24.3095C105.111 23.8422 104.595 22.7222 103.847 20.9478L99.2164 10.0236H98.4675C97.5327 12.3577 96.8771 13.8518 96.5971 14.5523L93.8374 20.6683C93.0415 22.4889 92.574 23.4689 92.433 23.7491C92.1992 24.2163 92.0589 24.5427 91.9192 24.6366C91.7788 24.7298 91.6841 24.8229 91.5451 24.8699C91.4048 24.9168 91.0299 24.9168 90.4692 24.963V25.6628C91.3114 25.6166 92.0589 25.569 92.7614 25.569ZM108.009 25.6621V24.9623C108.805 24.9161 109.273 24.8692 109.554 24.7753C109.647 24.7291 109.693 24.6352 109.741 24.542C109.834 24.4019 109.881 24.0286 109.929 23.4219C109.975 22.4413 109.975 21.6476 109.975 20.9478V12.0775C109.975 11.8442 109.975 11.7041 109.929 11.6109C109.882 11.4708 109.741 11.3307 109.555 11.1437C109.414 11.0036 109.273 10.9574 109.087 10.9104C108.899 10.8642 108.525 10.8642 107.964 10.8642V10.1637C109.226 10.2107 110.023 10.2107 110.35 10.2107C110.865 10.2107 111.426 10.2107 111.987 10.1637C112.595 10.9574 113.016 11.564 113.296 11.9381L115.542 14.6924L118.77 18.6607C119.845 19.9209 120.687 20.9485 121.296 21.6483C121.716 22.1155 122.044 22.4889 122.324 22.7691V14.8325C122.324 14.1327 122.278 13.2921 122.23 12.3584C122.23 11.751 122.183 11.3784 122.09 11.2376C122.038 11.138 121.956 11.0566 121.856 11.0043C121.623 10.9112 121.107 10.8642 120.36 10.8642V10.1637C121.202 10.2107 122.09 10.2107 122.979 10.2107C123.774 10.2107 124.57 10.2107 125.224 10.1637V10.8642C124.475 10.8642 123.962 10.9104 123.726 11.0043C123.633 11.0505 123.587 11.1444 123.539 11.2376C123.446 11.3777 123.399 11.751 123.353 12.4053C123.306 13.3384 123.306 14.179 123.306 14.8794V20.1079C123.306 21.1818 123.306 23.1425 123.353 26.0362L122.23 25.7098L121.948 25.6628C121.948 25.6173 121.903 25.6173 121.855 25.5697L121.434 25.1501C120.826 24.4496 120.405 23.9361 120.125 23.5628L118.72 21.7884L110.956 12.4046V20.9009C110.956 21.6007 111.003 22.4413 111.05 23.4219C111.05 24.0293 111.097 24.4019 111.19 24.542C111.243 24.6413 111.324 24.7226 111.424 24.7753C111.658 24.8685 112.173 24.9154 112.922 24.9623V25.6621C112.266 25.6166 111.565 25.569 110.769 25.569C109.928 25.569 109.039 25.6166 108.009 25.6621ZM21.1943 35.841C21.1943 38.1743 20.3991 39.0149 18.5287 39.0149C16.6575 39.0149 15.8623 38.222 15.8623 35.7941V30.5656H16.5635V35.841C16.5635 37.6146 16.9846 38.5008 18.5287 38.5008C20.1184 38.5008 20.4932 37.6146 20.4932 35.841V30.5656H21.1943V35.841ZM34.2454 38.1743C34.1984 36.8672 34.1984 34.2992 34.1984 30.5656H34.9002V38.8748H33.8713C31.7194 35.0943 30.3164 32.5732 29.6145 31.2661H29.5682C29.6145 32.5732 29.6145 35.1398 29.6145 38.8748H28.9127V30.5656H29.9416C32.0935 34.3461 33.5435 36.8672 34.2454 38.1743ZM42.6642 30.5656H43.366V38.8741H42.6642V30.5656ZM53.2826 38.3144C53.6224 37.0797 53.9811 35.8501 54.3585 34.6263L55.5749 30.5649H56.2767L53.7044 38.8741H52.8622L50.2892 30.5649H50.991L52.2074 34.6719C52.5905 35.8786 52.949 37.0931 53.2826 38.3144ZM66.8011 34.253V34.8127H63.8533V38.3144H67.736V38.8741H63.1521V30.5656H67.5956V31.1253H63.8533V34.253H66.8011ZM75.5954 34.7657V31.1253H76.8573C78.5411 31.1253 79.0562 31.7781 79.0562 32.9466C79.0562 34.1136 78.3551 34.7664 77.1844 34.7664L75.5954 34.7657ZM77.6996 35.2337C78.8225 35.0936 79.7581 34.3931 79.7581 32.8989C79.7581 31.2184 78.6351 30.5656 76.9051 30.5656H74.8928V38.8748H75.5954V35.3275H77.044L79.29 38.8748H80.1778L77.6996 35.2337ZM90.3751 31.9652C90.1884 31.4986 89.768 30.9375 88.8317 30.9375C88.318 30.9375 87.8505 31.1253 87.5698 31.4041C87.3361 31.5918 87.1957 31.9182 87.1957 32.3385C87.1957 32.805 87.3824 33.1791 87.6631 33.4124C87.9902 33.6919 88.3187 33.8789 89.2065 34.2985C90.0024 34.7195 90.4229 34.9058 90.7499 35.233C91.0314 35.5594 91.3121 36.0259 91.3121 36.6788C91.3121 37.2399 91.0784 37.7995 90.7036 38.2206C90.2818 38.5925 89.674 39.0135 88.7861 39.0135C87.3361 39.0135 86.6342 38.3592 86.3535 37.5186L87.0076 37.4255C87.2427 37.9396 87.8035 38.4993 88.7861 38.4993C89.4402 38.4993 89.8621 38.2198 90.1891 37.892C90.4229 37.6125 90.6095 37.1922 90.6095 36.7726C90.6095 36.2115 90.3758 35.8851 90.1421 35.6042C89.8621 35.4179 89.535 35.2322 88.6458 34.7636C87.6631 34.2971 87.3824 34.1107 87.1024 33.8305C86.7739 33.5041 86.4939 33.0376 86.4939 32.3833C86.4939 31.8706 86.6805 31.4026 87.0546 31.0307C87.4765 30.6573 88.0372 30.4234 88.8795 30.4234C90.1891 30.4234 90.7969 31.0762 91.0314 31.8706L90.3751 31.9652ZM98.4205 30.5656H99.1231V38.8741H98.4205V30.5656ZM111.565 31.1253H109.132V38.8741H108.431V31.1253H106.046V30.5656H111.565V31.1253ZM120.827 35.4669V38.8741H120.126V35.4669L117.646 30.5649H118.442L119.47 32.7126C119.797 33.4586 120.126 34.1598 120.498 34.9058C120.872 34.1598 121.201 33.4124 121.528 32.7126L122.556 30.5649H123.305L120.827 35.4669Z" fill="#9B99AB"/>
<path d="M16.0029 28.0901H123.353" stroke="#9B99AB" stroke-width="8.43035" stroke-miterlimit="2.613"/>
<path fill-rule="evenodd" clip-rule="evenodd" d="M11.9799 10.5842C10.5298 7.40955 11.4654 14.226 10.4365 16.3731C9.64129 18.1005 9.2672 18.7071 7.77013 20.4814C6.78824 21.5553 5.10377 24.0764 4.40191 24.4497C4.16819 22.0218 5.71158 19.5015 6.88087 17.2606C7.30127 16.3268 9.73392 12.2191 10.2484 8.62421C10.9966 3.11554 7.20793 -1.36621 7.44236 0.26804C7.86276 2.46198 8.28388 4.14246 7.95682 5.96304C7.02124 11.4255 5.89826 12.0321 3.98079 15.7202C3.13856 17.2144 -0.228958 22.1626 0.00475857 26.7375C0.332532 33.1338 4.26154 36.7756 5.47786 37.7094C6.22675 38.1759 5.10377 34.4409 5.38451 32.2939C5.89898 29.2586 7.02195 27.1116 8.70571 25.1047C10.8576 22.5374 12.4473 20.4366 12.8221 16.9349C13.1029 14.4117 11.9799 10.5372 11.9799 10.5842Z" fill="#9B99AB"/>
<path fill-rule="evenodd" clip-rule="evenodd" d="M8.61239 38.8743C8.79979 35.9799 9.22091 34.0199 10.3432 32.5251C11.045 31.4989 12.2607 29.211 12.074 26.9232C12.0276 25.7093 10.5306 21.8341 10.5769 24.5422C10.4836 25.7093 10.5769 26.269 10.2498 27.3428C9.26794 30.1917 6.4612 31.4512 6.36715 34.7659C6.2738 36.7743 8.47202 40.2291 8.61239 38.8743ZM16.3771 47.6515V47.6046C16.7982 47.6515 17.1723 47.6515 17.5934 47.6515C17.8741 47.6515 18.2952 47.6515 18.6693 47.6046L18.7164 47.6515L18.6693 47.8848L18.623 47.9317C18.4356 47.9317 18.0615 47.9317 18.0145 48.0704C17.9211 48.2581 17.6874 49.3775 17.5 50.5915C18.576 49.6584 20.0253 48.1173 20.0723 47.9317C20.0723 47.8371 20.0723 47.744 20.1187 47.6508V47.6039C20.3061 47.6508 20.4927 47.6508 20.7272 47.6508C20.9146 47.6508 21.1483 47.6508 21.3357 47.6039L21.382 47.6508L21.3357 47.8841L21.2887 47.931C20.9616 47.931 20.8212 47.931 20.3531 48.3506L18.2952 50.4051L20.2127 52.8331C20.5868 53.2996 20.7272 53.3458 21.102 53.3458L21.1483 53.3927L21.102 53.626L21.0549 53.6715C20.8212 53.626 20.6338 53.626 20.4001 53.626C20.1664 53.626 19.979 53.626 19.7453 53.6715C19.4182 53.1588 18.3416 51.7592 17.5 50.7309C17.2663 51.8517 17.1259 52.9255 17.1259 53.1118C17.1259 53.2519 17.2193 53.3451 17.8278 53.3451L17.8741 53.392L17.8278 53.6253L17.7808 53.6708C17.4067 53.6253 16.9856 53.6253 16.6115 53.6253H15.4422L15.4892 53.392L15.5355 53.3451C15.7229 53.3451 16.097 53.3451 16.1904 53.2064C16.3307 52.8786 17.0326 48.4907 17.0326 48.1643C17.0326 48.0242 16.9856 47.931 16.3307 47.931V47.8841L16.3771 47.6515ZM24.0013 50.3127C24.0013 51.0125 23.1121 51.5722 22.3176 51.6653C22.5983 50.6846 22.785 49.8917 23.5339 49.8917C23.8147 49.8924 24.0013 50.0325 24.0013 50.3127ZM21.4754 52.6005C21.4754 53.3935 22.0368 53.7675 22.5513 53.7675C23.2525 53.7675 24.0947 53.1602 24.3284 52.9269L24.3747 52.88L24.3284 52.6937H24.2821C23.908 53.0201 23.3928 53.301 22.9724 53.301C22.5983 53.301 22.2242 53.0201 22.2242 52.3665C22.2242 52.1333 22.2706 52.0401 22.2706 51.9C24.1887 51.5281 24.7965 50.7806 24.7965 50.1733C24.7965 49.8469 24.5628 49.519 23.9543 49.519C23.2061 49.519 22.3176 50.1264 22.0368 50.5467C21.7091 51.0132 21.4754 52.0394 21.4754 52.6005ZM25.0303 50.4059L25.0773 50.3589C25.264 50.2188 26.1062 49.566 26.4803 49.566C26.714 49.566 26.8074 49.6591 26.8074 49.8469C26.8074 50.0801 26.714 50.3134 26.4333 51.3403L26.4796 51.3873C27.0411 50.3596 28.1633 49.566 28.7248 49.566C29.0519 49.566 29.146 49.7523 29.146 49.9393C29.146 50.1257 29.0056 50.7323 28.8189 51.3865C28.6785 52.0863 28.4448 52.7392 28.4448 52.9269C28.4448 53.0201 28.5382 53.1132 28.5852 53.1132C28.6785 53.1132 29.0063 52.9269 29.2863 52.6937H29.3334L29.4267 52.8338V52.8793C28.9593 53.2526 28.3037 53.7199 27.9767 53.7199C27.79 53.7199 27.6026 53.5798 27.6026 53.3003C27.6026 52.7861 28.2574 50.9655 28.2574 50.4059C28.2574 50.2658 28.1641 50.2181 28.07 50.2181C27.6959 50.2181 26.8537 51.0125 26.5266 51.713C26.2922 52.1795 26.1525 52.9269 26.0585 53.5798C25.7777 53.6267 25.497 53.6267 25.2633 53.7199L25.217 53.6729C25.4977 52.8338 25.9188 50.8254 25.9188 50.3589C25.9188 50.2657 25.8718 50.2188 25.7784 50.2188C25.6844 50.2188 25.4044 50.3589 25.1699 50.5467H25.1229L25.0303 50.4059ZM31.9534 52.7392V52.7861C31.2052 53.439 30.6908 53.7192 30.363 53.7192C30.0352 53.7192 30.0359 53.4859 30.0359 53.3927C30.0359 53.1118 30.457 51.245 30.6444 50.3575H29.8956V50.1712H29.9419C30.1763 50.078 30.5504 49.9379 30.7371 49.7978L30.9708 48.3506C31.2986 48.2105 31.486 48.1173 31.719 48.0242L31.813 48.1173C31.6727 48.4438 31.5786 49.0504 31.3919 49.891C31.8601 49.891 32.2341 49.8454 32.3745 49.7978L32.4208 49.891C32.3745 49.9841 32.3275 50.2174 32.2805 50.312V50.3575C31.9997 50.3575 31.6256 50.312 31.2986 50.312C30.8775 52.5521 30.8304 52.7861 30.8304 52.9262C30.8304 53.0663 30.8775 53.1125 30.9708 53.1125C31.1112 53.1125 31.3919 52.9724 31.813 52.646H31.8593L31.9534 52.7392ZM32.3745 50.4059V50.3589C33.2631 49.7061 33.6372 49.5183 33.8716 49.5183C34.059 49.5183 34.1987 49.6584 34.1987 49.8462C34.1987 50.3127 33.5438 52.2727 33.5438 52.8338C33.5438 53.0201 33.5908 53.067 33.6842 53.067C34.0112 53.067 35.0409 51.8986 35.2283 51.3389C35.462 50.6846 35.5553 50.2181 35.6957 49.7054C35.8361 49.7054 36.3035 49.6108 36.3976 49.5176L36.4909 49.6108C36.2565 50.1249 35.742 52.5998 35.742 52.8793C35.742 53.0194 35.7891 53.067 35.8824 53.067C35.9757 53.067 36.1632 53.0201 36.5372 52.6937H36.5843L36.6776 52.8338V52.8793C36.1632 53.3458 35.5083 53.7199 35.1805 53.7199C34.9931 53.7199 34.8998 53.6267 34.8998 53.3934C34.8998 53.2071 34.9461 52.8338 35.2269 51.8986L35.1798 51.8531C34.7587 52.6005 33.7298 53.7199 33.075 53.7199C32.8412 53.7199 32.7009 53.5798 32.7009 53.3003C32.7009 52.7861 33.2624 51.0125 33.2624 50.4059C33.2624 50.2658 33.216 50.2181 33.122 50.2181C33.0279 50.2181 32.8412 50.3127 32.4672 50.5915V50.5459L32.3745 50.4059ZM40.0922 52.8338L40.0458 52.9269C39.2977 53.4866 38.7832 53.7675 38.2687 53.7675C37.5198 53.7675 37.1458 53.1602 37.1458 52.4135C37.1458 51.9469 37.3324 50.9662 37.8006 50.3589C37.9873 50.2188 38.0343 50.1726 38.5025 49.8924C39.0639 49.566 39.2977 49.4728 39.5784 49.4728C39.9055 49.4728 40.1869 49.6115 40.3736 49.7061V49.7516C40.3266 50.0794 40.2332 50.4058 40.2332 50.7792L40.1869 50.8247H39.9525V50.7792V50.1249C39.9055 50.0794 39.5314 49.9386 39.2043 49.9386C38.5495 49.9386 38.3621 50.3582 38.2224 50.7792C38.035 51.3865 37.9417 51.9462 37.9417 52.2727C37.9417 52.6005 37.988 53.3003 38.6428 53.3003C38.9243 53.3003 39.2513 53.2071 39.9995 52.646H40.0458L40.0922 52.8338ZM44.3952 52.9269V52.9724C43.9741 53.3458 43.3663 53.7199 43.226 53.7199C42.9922 53.7199 42.8989 53.5335 42.197 51.5266C41.7759 51.9462 41.5885 52.2264 41.4018 53.5335C41.1681 53.5791 40.8403 53.6267 40.6536 53.7199L40.5603 53.6729C40.8874 52.6467 41.7296 48.7709 41.7296 48.2112C41.7296 47.9317 41.6833 47.9317 40.9807 47.9317V47.697H41.0277C41.4489 47.697 42.1037 47.5107 42.6181 47.3251L42.7115 47.4183C42.5248 47.9324 42.103 50.2188 41.7759 51.6198V51.6653C43.0385 50.0794 43.7874 49.5176 44.3482 49.5176C44.4416 49.5176 44.5356 49.5176 44.6297 49.5645C44.5826 49.7509 44.4893 49.9379 44.4893 50.1719C44.396 50.1719 44.3019 50.1249 44.1622 50.1249C43.6478 50.1249 43.32 50.3127 42.7592 50.8724C43.4141 52.8793 43.5074 53.067 43.6941 53.067C43.8815 53.067 44.0219 52.9724 44.2556 52.8338H44.3019L44.3952 52.9269ZM44.5826 50.4059V50.3589C45.0971 49.9393 45.7049 49.5183 45.9857 49.5183C46.1731 49.5183 46.3597 49.6115 46.3597 50.0325C46.3597 50.5922 46.1253 51.8061 46.1253 52.6937C46.1253 52.88 46.2187 52.9732 46.3127 52.9732C46.5935 52.9732 47.1079 52.3658 47.4357 51.7606C47.8098 51.0594 48.0442 49.8469 48.0905 49.7061C48.5116 49.6115 48.605 49.6115 48.8857 49.5183L48.9321 49.6115C48.3706 51.0587 47.7628 54.0008 47.1079 54.8869C46.8272 55.2603 46.032 56.0553 45.3771 56.0553C45.2724 56.0561 45.1686 56.0361 45.0718 55.9964C44.9749 55.9567 44.8869 55.8982 44.8129 55.8243C44.7389 55.7504 44.6804 55.6625 44.6407 55.5658C44.6011 55.4691 44.5811 55.3655 44.5819 55.261C44.7223 55.1678 44.909 55.0746 45.0494 54.9345L45.1427 54.9815V55.0746C45.1427 55.3079 45.2831 55.6343 45.6572 55.6343C46.1246 55.6343 46.5464 55.027 46.7802 54.2803L47.388 52.3203H47.3409C46.5927 53.3942 46.1716 53.7206 45.7975 53.7206C45.5168 53.7206 45.3764 53.5805 45.3764 53.1609C45.3764 52.3203 45.5638 51.4804 45.5638 50.5929C45.5638 50.2665 45.5175 50.1733 45.3301 50.1733C45.2368 50.1733 44.956 50.3596 44.7216 50.5467L44.5826 50.4059ZM50.2424 48.7709C50.1961 48.3044 50.1961 48.118 50.1961 47.9779C50.1961 47.6515 50.3365 47.5114 50.6172 47.5114C50.898 47.5114 51.0383 47.6515 51.0383 47.9779C51.0383 48.118 50.9913 48.3044 50.9443 48.7709L50.8509 49.6115C50.8509 49.8924 50.7576 49.9393 50.6172 49.9393C50.4769 49.9393 50.3835 49.8924 50.3365 49.6115L50.2424 48.7709ZM54.1251 50.7799H54.0781C54.0781 50.5922 54.1251 50.3134 54.1251 50.2657C54.1251 50.1257 53.6107 49.9848 53.2829 49.9848C52.628 49.9848 52.4406 50.3582 52.4406 50.5922C52.4406 51.666 54.4522 50.7323 54.4522 52.1326C54.4522 52.6467 54.2648 52.9732 53.704 53.3465C53.2829 53.6274 53.0492 53.7199 52.581 53.7199C52.2405 53.7152 51.9052 53.6355 51.5991 53.4866V53.4397C51.6925 53.1132 51.7395 52.6937 51.7865 52.3658L51.8328 52.3203H52.0202V52.9732C52.0666 53.0677 52.5347 53.301 52.9558 53.301C53.4703 53.301 53.8444 53.0677 53.8444 52.5066C53.8444 52.0401 53.5173 51.9469 52.9095 51.8993C52.301 51.8061 51.8336 51.5729 51.8336 50.9662C51.8336 50.1257 53.0028 49.519 53.6577 49.519C53.9384 49.519 54.2192 49.566 54.4999 49.7068L54.5469 49.7523C54.4066 50.1733 54.4066 50.2665 54.3595 50.7799H54.1251ZM62.3102 49.145V49.0994C62.3102 48.9117 62.3102 48.4452 62.2639 48.3997C61.8284 48.129 61.3267 47.9834 60.8138 47.9786C59.036 47.9786 58.4752 49.519 58.4752 51.0594C58.4752 52.7875 59.5512 53.2078 60.3927 53.2078C61.2813 53.2078 61.8898 52.9269 62.4042 52.6005L62.4506 52.646C62.4506 52.7392 62.4042 52.8793 62.4042 53.0194C61.7957 53.439 61.1416 53.7668 60.206 53.7668C58.4282 53.7668 57.5397 52.7861 57.5397 51.058C57.5397 48.6315 59.5512 47.5107 61.1416 47.5107C61.7964 47.5107 62.3109 47.6508 62.8254 47.8371V47.8841C62.685 48.3036 62.5916 48.7247 62.5916 49.098L62.5446 49.1435H62.3102V49.145ZM63.808 52.9269C63.808 51.9462 64.2284 50.3589 64.4621 50.1726C64.5569 50.0794 64.7906 49.9848 65.0706 49.9848C65.3521 49.9848 65.5858 50.0318 65.8195 50.1726C65.6328 51.8993 64.1357 53.1132 63.902 53.1132C63.808 53.1132 63.808 53.067 63.808 52.9269ZM66.2862 49.7516C65.9121 49.5653 65.6321 49.5183 65.444 49.5183C64.7428 49.5183 63.9939 50.1726 63.8536 50.3127C63.5265 50.7323 63.012 51.9462 63.012 53.067C63.012 53.5798 63.1061 53.7199 63.3861 53.7199C64.0417 53.7199 65.1647 52.4128 65.538 51.7599C65.258 52.6005 65.1176 53.2071 65.1176 53.439C65.1176 53.6267 65.211 53.7199 65.4447 53.7199C65.7261 53.7199 66.1936 53.4866 66.8947 52.8793V52.8338L66.8014 52.6937C66.5199 52.9732 66.2406 53.1132 66.1002 53.1132C66.0055 53.1132 65.9599 53.0677 65.9599 52.9732C65.9599 52.6937 66.5684 49.9856 66.7544 49.6115L66.5677 49.5183L66.2862 49.7516ZM67.2688 50.4059V50.3589C67.5503 50.0794 68.3918 49.5183 68.7666 49.5183C68.9533 49.5183 69.0466 49.6584 69.0466 49.8462C69.0466 50.0325 68.8599 50.7792 68.7196 51.292V51.3389C69.0937 50.5459 69.7955 49.5176 70.4033 49.5176C70.4967 49.5176 70.5437 49.5645 70.59 49.5645V49.6101C70.5014 49.9296 70.4547 50.2592 70.4511 50.5908H70.3107C70.2159 50.4507 70.1226 50.4044 69.9822 50.4044C69.3737 50.4044 68.4859 51.7115 68.2985 53.5784C67.878 53.6253 67.7847 53.6253 67.504 53.7184L67.4106 53.6715C67.6443 53.2519 68.1595 50.824 68.1595 50.3575C68.1595 50.2643 68.1595 50.2174 68.0191 50.2174C67.8788 50.2174 67.6907 50.312 67.3636 50.5908L67.2688 50.4059ZM73.1623 50.3127C73.1623 51.0125 72.2731 51.5722 71.4786 51.6653C71.76 50.6846 71.946 49.8917 72.6949 49.8917C72.9749 49.8924 73.1623 50.0325 73.1623 50.3127ZM70.637 52.6005C70.637 53.3935 71.1978 53.7675 71.713 53.7675C72.4141 53.7675 73.2564 53.1602 73.4901 52.9269L73.5371 52.88L73.4901 52.6937H73.4445C73.0704 53.0201 72.5552 53.301 72.1334 53.301C71.7607 53.301 71.3859 53.0201 71.3859 52.3665C71.3859 52.1333 71.4315 52.0401 71.4315 51.9C73.349 51.5281 73.9575 50.7806 73.9575 50.1733C73.9575 49.8469 73.7238 49.519 73.163 49.519C72.3671 49.519 71.4793 50.1264 71.1978 50.5467C70.8708 51.0132 70.637 52.0394 70.637 52.6005ZM76.8576 50.3127C76.8576 51.0125 75.9683 51.5722 75.1739 51.6653C75.4553 50.6846 75.6413 49.8917 76.3902 49.8917C76.6709 49.8924 76.8576 50.0325 76.8576 50.3127ZM74.3316 52.6005C74.3316 53.3935 74.8924 53.7675 75.4076 53.7675C76.1087 53.7675 76.951 53.1602 77.1847 52.9269L77.2317 52.88L77.1384 52.6937C76.7643 53.0201 76.2491 53.301 75.8287 53.301C75.4546 53.301 75.0798 53.0201 75.0798 52.3665C75.0798 52.1333 75.0798 52.0401 75.1268 51.9C76.9973 51.5281 77.6058 50.7806 77.6058 50.1733C77.6058 49.8469 77.4177 49.519 76.8113 49.519C76.0624 49.519 75.1731 50.1264 74.8924 50.5467C74.5653 51.0132 74.3316 52.0394 74.3316 52.6005ZM77.8402 50.4059V50.3589C78.1673 50.0794 78.9618 49.5183 79.3366 49.5183C79.5247 49.5183 79.618 49.6584 79.618 49.8462C79.618 50.0325 79.4313 50.7792 79.291 51.292V51.3389C79.6651 50.5459 80.3669 49.5176 80.9747 49.5176C81.0681 49.5176 81.1614 49.5645 81.1614 49.5645V49.6101C81.1158 49.9379 81.021 50.3113 81.021 50.5908H80.8821C80.7873 50.4507 80.694 50.4044 80.5536 50.4044C79.9451 50.4044 79.0573 51.7115 78.8699 53.5784C78.4494 53.6253 78.3561 53.6253 78.0754 53.7184L77.982 53.6715C78.262 53.2519 78.7295 50.824 78.7295 50.3575C78.7295 50.2643 78.7295 50.2174 78.5905 50.2174C78.4958 50.2174 78.262 50.312 77.982 50.5908H77.935L77.8402 50.4059ZM87.6157 47.6515L87.6627 47.6046C88.0368 47.6046 88.4116 47.6515 88.7857 47.6515C89.1598 47.6515 89.5346 47.6046 89.9072 47.6046L89.9543 47.6515L89.9072 47.8848L89.8616 47.9317C89.2531 47.9317 89.2531 47.9317 89.1128 48.7709C89.0657 49.0987 88.4116 52.7861 88.4116 53.067C88.4116 53.2533 88.552 53.3003 89.1605 53.3465V53.3934L89.1135 53.6267V53.6722C88.832 53.6267 88.5527 53.6267 88.2712 53.6267H87.4297C87.5231 53.2533 87.6164 52.8793 87.6634 52.5529C86.8689 53.439 86.1671 53.7668 85.4189 53.7668C84.5296 53.7668 83.8755 53.3458 83.8755 52.4128C83.8755 51.9932 84.0145 51.3389 84.1092 50.6391L84.2959 49.7061C84.3429 49.2395 84.484 48.4452 84.484 48.2112C84.484 47.9317 84.437 47.9317 83.8285 47.9317L83.7815 47.8848L83.8285 47.6515L83.8755 47.6046C84.0145 47.6046 84.5296 47.6515 84.8567 47.6515C85.0904 47.6515 85.4189 47.6515 85.5122 47.6046C85.1382 49.4259 84.7178 51.5729 84.7178 52.2727C84.7178 53.067 85.4189 53.2071 85.746 53.2071C86.5405 53.2071 87.196 52.646 87.7568 52.0387C87.8972 51.1056 88.3653 48.3982 88.3653 48.2105C88.3653 47.931 88.1786 47.931 87.6164 47.931L87.5708 47.8841L87.6157 47.6515ZM89.8616 50.4059V50.3589C90.0483 50.2188 90.8899 49.566 91.2647 49.566C91.4984 49.566 91.5917 49.6591 91.5917 49.8469C91.5917 50.0801 91.4984 50.3134 91.2647 51.3403V51.3873C91.8254 50.3596 92.9484 49.566 93.5569 49.566C93.8384 49.566 93.931 49.7523 93.931 49.9393C93.931 50.1257 93.7906 50.7323 93.604 51.3865C93.4636 52.0863 93.2755 52.7392 93.2755 52.9269C93.2755 53.0201 93.3225 53.1132 93.4159 53.1132C93.5092 53.1132 93.7899 52.9269 94.0714 52.6937H94.117L94.2118 52.8338V52.8793C93.7429 53.2526 93.1344 53.7199 92.7617 53.7199C92.5736 53.7199 92.4332 53.5798 92.4332 53.3003C92.4332 52.7861 93.0418 50.9655 93.0888 50.4059C93.0888 50.2658 92.9955 50.2181 92.8551 50.2181C92.481 50.2181 91.6388 51.0125 91.3117 51.713C91.1236 52.1795 90.9376 52.9269 90.8443 53.5798C90.5628 53.6267 90.3291 53.6267 90.0483 53.7199L90.0027 53.6729C90.2828 52.8338 90.7039 50.8254 90.7039 50.3589C90.7039 50.2657 90.6569 50.2188 90.6091 50.2188C90.4702 50.2188 90.1887 50.3589 89.955 50.5467H89.908L89.8616 50.4059ZM94.6322 50.4059V50.3589C95.0996 49.9855 95.8015 49.566 96.13 49.566C96.2689 49.566 96.457 49.6591 96.457 49.8469C96.457 50.2665 95.8015 52.3665 95.8015 52.8807C95.8015 53.0208 95.8485 53.114 95.9418 53.114C96.0822 53.114 96.2689 52.9739 96.643 52.6944L96.7363 52.8807V52.9276C96.0352 53.4404 95.6148 53.7206 95.2877 53.7206C95.0526 53.7206 94.9592 53.5805 94.9592 53.3472C94.9592 52.9276 95.5677 50.9662 95.5677 50.4066C95.5677 50.2665 95.5222 50.1733 95.4274 50.1733C95.334 50.1733 95.1473 50.3134 94.7262 50.5929L94.6322 50.4059ZM96.457 47.6046C96.6437 47.6046 96.8311 47.7923 96.8311 48.0256C96.8311 48.2588 96.643 48.6784 96.2226 48.6784C96.1732 48.6792 96.1243 48.6701 96.0785 48.6516C96.0328 48.6331 95.9912 48.6056 95.9564 48.5708C95.9215 48.536 95.8939 48.4945 95.8754 48.4489C95.8569 48.4032 95.8477 48.3543 95.8485 48.3051C95.8485 47.9779 96.13 47.6046 96.457 47.6046ZM99.8245 50.0794C100.011 49.8917 100.199 49.7061 100.338 49.5653C100.385 49.5183 100.433 49.5183 100.573 49.5183C100.9 49.5183 101.134 49.7516 101.134 50.3127C101.134 51.8531 99.7298 53.7668 98.6082 53.7668C97.9997 53.7668 97.6256 53.2526 97.6256 52.5998C97.6256 51.6653 98.4678 50.5452 98.8419 50.1719V50.1249C98.6449 50.1861 98.4398 50.2175 98.2334 50.2181C98.0453 50.2181 97.952 50.1726 97.8116 50.1726C97.6726 50.1726 97.5779 50.3127 97.3912 50.6853L97.3441 50.7323H97.2052L97.1582 50.6853C97.3919 50.1256 97.4396 49.9393 97.5323 49.6591C97.7189 49.6122 97.8593 49.6122 97.9527 49.6122C98.093 49.6122 98.5149 49.6591 98.8419 49.6591C99.0286 49.6591 99.216 49.6122 99.3571 49.6122L99.4504 49.7068C98.7016 50.5474 98.3745 51.7137 98.3745 52.3665C98.3745 53.0208 98.7016 53.2541 99.0286 53.2541C100.058 53.2541 100.479 51.4804 100.479 50.6861C100.479 50.3596 100.338 50.1733 100.199 50.1733C100.104 50.1733 100.011 50.1733 99.9172 50.2188L99.8245 50.0794ZM104.221 50.3127C104.221 51.0125 103.286 51.5722 102.491 51.6653C102.771 50.6846 103.005 49.8917 103.753 49.8917C104.035 49.8924 104.221 50.0325 104.221 50.3127ZM101.648 52.6005C101.648 53.3935 102.256 53.7675 102.771 53.7675C103.426 53.7675 104.269 53.1602 104.548 52.9269V52.88L104.502 52.6937H104.455C104.081 53.0201 103.613 53.301 103.146 53.301C102.772 53.301 102.397 53.0201 102.397 52.3665C102.397 52.1333 102.444 52.0401 102.492 51.9C104.362 51.5281 104.971 50.7806 104.971 50.1733C104.971 49.8469 104.737 49.519 104.176 49.519C103.427 49.519 102.492 50.1264 102.211 50.5467C101.929 51.0132 101.648 52.0394 101.648 52.6005ZM105.204 50.4059V50.3589C105.485 50.0794 106.327 49.5183 106.654 49.5183C106.887 49.5183 106.981 49.6584 106.981 49.8462C106.981 50.0325 106.747 50.7792 106.654 51.292V51.3389C106.981 50.5459 107.73 49.5176 108.337 49.5176C108.431 49.5176 108.478 49.5645 108.524 49.5645V49.6101C108.435 49.9295 108.388 50.2592 108.384 50.5908H108.197C108.15 50.4507 108.057 50.4044 107.916 50.4044C107.307 50.4044 106.372 51.7115 106.232 53.5784C105.811 53.6253 105.718 53.6253 105.437 53.7184L105.344 53.6715C105.578 53.2519 106.091 50.824 106.091 50.3575C106.091 50.2643 106.046 50.2174 105.952 50.2174C105.812 50.2174 105.624 50.312 105.297 50.5908H105.251L105.204 50.4059ZM110.864 50.7799V50.2657C110.864 50.1257 110.397 49.9848 110.068 49.9848C109.367 49.9848 109.226 50.3582 109.226 50.5922C109.226 51.666 111.238 50.7323 111.238 52.1326C111.238 52.6467 111.004 52.9732 110.489 53.3465C110.067 53.6274 109.788 53.7199 109.366 53.7199C108.946 53.7199 108.572 53.5798 108.384 53.4866L108.338 53.4397C108.431 53.1132 108.525 52.6937 108.572 52.3658V52.3203H108.758L108.806 52.3658V52.9732C108.806 53.0677 109.321 53.301 109.693 53.301C110.209 53.301 110.583 53.0677 110.583 52.5066C110.583 52.0401 110.256 51.9469 109.693 51.8993C109.086 51.8061 108.617 51.5729 108.617 50.9662C108.617 50.1257 109.74 49.519 110.396 49.519C110.676 49.519 110.957 49.566 111.284 49.7068V49.7523C111.19 50.1733 111.19 50.2665 111.097 50.7799H110.864ZM111.799 50.4059V50.3589C112.266 49.9855 112.922 49.566 113.295 49.566C113.436 49.566 113.624 49.6591 113.624 49.8469C113.624 50.2665 112.968 52.3665 112.968 52.8807C112.968 53.0208 113.015 53.114 113.109 53.114C113.202 53.114 113.436 52.9739 113.764 52.6944H113.81L113.903 52.8807V52.9276C113.202 53.4404 112.782 53.7206 112.453 53.7206C112.219 53.7206 112.08 53.5805 112.08 53.3472C112.08 52.9276 112.735 50.9662 112.735 50.4066C112.735 50.2665 112.687 50.1733 112.594 50.1733C112.501 50.1733 112.267 50.3134 111.893 50.5929H111.847L111.799 50.4059ZM113.576 47.6046C113.81 47.6046 113.998 47.7923 113.998 48.0256C113.998 48.2588 113.81 48.6784 113.389 48.6784C113.108 48.6784 112.968 48.4921 112.968 48.3051C112.968 47.9779 113.295 47.6046 113.576 47.6046ZM116.477 52.7392V52.7861C115.682 53.439 115.215 53.7192 114.886 53.7192C114.559 53.7192 114.559 53.4859 114.559 53.3927C114.559 53.1118 114.933 51.245 115.12 50.3575H114.419V50.1712H114.466C114.7 50.078 115.075 49.9379 115.215 49.7978L115.495 48.3506C115.822 48.2105 116.01 48.1173 116.244 48.0242L116.337 48.1173C116.197 48.4438 116.056 49.0504 115.917 49.891C116.337 49.891 116.759 49.8454 116.899 49.7978L116.945 49.891C116.899 49.9841 116.805 50.2174 116.805 50.312L116.759 50.3575C116.525 50.3575 116.15 50.312 115.823 50.312C115.402 52.5521 115.355 52.7861 115.355 52.9262C115.355 53.0663 115.402 53.1125 115.496 53.1125C115.636 53.1125 115.87 52.9724 116.338 52.646H116.385L116.477 52.7392Z" fill="#9B99AB"/>
<path fill-rule="evenodd" clip-rule="evenodd" d="M116.757 50.4056V50.3587C117.271 49.9391 117.833 49.5181 118.16 49.5181C118.347 49.5181 118.487 49.6112 118.487 50.0322C118.487 50.5919 118.3 51.8059 118.3 52.6934C118.3 52.8797 118.394 52.9729 118.487 52.9729C118.769 52.9729 119.283 52.3656 119.61 51.7604C119.984 51.0592 120.219 49.8466 120.219 49.7058C120.686 49.6112 120.779 49.6112 121.061 49.5181L121.106 49.6112C120.546 51.0584 119.937 54.0005 119.283 54.8866C119.002 55.26 118.16 56.0551 117.504 56.0551C117.13 56.0551 116.757 55.7272 116.71 55.2607C116.898 55.1675 117.084 55.0744 117.225 54.9343L117.318 54.9812V55.0744C117.318 55.3077 117.459 55.6341 117.834 55.6341C118.301 55.6341 118.721 55.0267 118.955 54.28L119.564 52.3201H119.518C118.769 53.3939 118.347 53.7203 117.928 53.7203C117.694 53.7203 117.554 53.5802 117.554 53.1606C117.554 52.32 117.694 51.4802 117.694 50.5926C117.694 50.2662 117.647 50.173 117.506 50.173C117.367 50.173 117.132 50.3594 116.899 50.5464H116.852L116.757 50.4056Z" fill="#9B99AB"/>
</g>
<defs>
<clipPath id="clip0_1_13751">
<rect width="125" height="56" fill="white"/>
</clipPath>
</defs>
</svg>
