<svg width="121" height="56" viewBox="0 0 121 56" fill="none" xmlns="http://www.w3.org/2000/svg">
<g clip-path="url(#clip0_1_13765)">
<path d="M18.0319 12.2583C17.7572 12.4331 17.7073 13.4068 17.7322 16.9771C17.7572 20.048 17.7073 21.521 17.5075 21.6459C17.3576 21.7457 16.5834 21.546 15.8092 21.2214C14.6604 20.7471 13.9362 20.6472 12.0132 20.6472C8.49187 20.6722 6.51893 21.4711 4.12142 23.8679C2.74785 25.2411 2.17345 26.1649 1.27439 28.3869C0.400299 30.5341 0.774909 34.5537 2.09853 37.2252C2.92267 38.898 5.12038 40.9702 7.14328 41.9939C8.86648 42.8427 8.9414 42.8677 12.0132 42.8677C15.3098 42.8677 15.6594 42.7678 18.3816 41.12C19.1558 40.6706 19.1558 40.6706 19.88 41.3447C21.0788 42.4433 22.6022 43.0175 24.0756 42.9426L25.3743 42.8677V37.8993L24.3753 37.4L23.3764 36.8757L23.3014 24.7917C23.2765 16.3779 23.1516 12.6079 22.9768 12.3582C22.6521 11.9837 18.6063 11.8838 18.0319 12.2583ZM13.3618 26.3646C16.8582 27.4132 18.6313 31.1832 17.0579 34.2042C15.2099 37.7495 11.0142 38.5734 8.29208 35.9519C6.5439 34.3041 5.9695 32.5314 6.51893 30.5091C7.14328 28.1622 9.41591 26.2647 11.9133 26.04C12.0632 26.0151 12.7125 26.1649 13.3618 26.3646ZM53.7447 12.3832C53.5449 12.6079 53.495 16.8522 53.52 27.7877L53.5949 42.8677H58.9893V27.6629C58.9893 15.4791 58.9143 12.4081 58.6646 12.2583C58.0902 11.8838 54.0694 11.9837 53.7447 12.3832ZM63.9841 12.3832C63.7843 12.6079 63.7343 16.8522 63.7593 27.7877L63.8342 42.8677H69.3285L69.4034 27.7628C69.4534 13.7813 69.4284 12.6328 69.0288 12.3332C68.4294 11.9088 64.3587 11.9338 63.9841 12.3832ZM90.1818 20.1479C90.007 20.3726 89.932 20.822 90.007 21.2714C90.3066 22.7195 89.6573 23.2188 88.7832 22.2451C86.2609 19.4738 80.0174 20.2727 76.4211 23.818C74.7728 25.4408 73.8488 27.2385 73.2994 29.86C72.9497 31.5577 72.9497 31.9572 73.2994 33.7798C73.9986 37.5248 76.2713 40.4709 79.6927 42.0937C81.2161 42.8178 81.4908 42.8677 84.3129 42.8677C87.1849 42.8677 87.3847 42.8427 88.9331 42.0688C89.8321 41.6194 90.7312 41.12 90.9809 40.9453C91.3056 40.6956 91.5304 40.7705 92.2546 41.4196C93.4284 42.4433 95.0767 43.0425 96.4503 42.9426L97.5491 42.8677L97.624 40.3461L97.699 37.7994L96.725 37.4249C96.0257 37.1503 95.701 36.8257 95.5762 36.3514C95.4763 35.9769 95.4263 32.2069 95.4513 27.9375C95.4763 21.5959 95.4263 20.1728 95.1516 19.9981C94.9518 19.8732 93.828 19.7734 92.6542 19.7734C91.0309 19.7734 90.4065 19.8732 90.1818 20.1479ZM86.5855 26.6892C88.5335 27.588 89.932 29.7351 89.932 31.8324C89.932 33.4802 89.4326 34.5787 88.059 35.877C85.9362 37.9492 82.9643 38.0241 80.6917 36.0518C79.2931 34.8783 78.6937 33.605 78.6937 31.8823C78.6937 29.9349 79.4679 28.5118 81.2161 27.1885C82.7395 26.04 84.7624 25.8403 86.5855 26.6892ZM101.92 20.2727C101.745 20.5973 101.695 24.4671 101.72 31.8074L101.795 42.8677H107.039L107.164 36.626C107.314 29.5853 107.314 29.5604 109.237 27.7128C110.536 26.4645 112.009 25.9402 113.557 26.1898C114.182 26.2897 114.432 26.1898 114.881 25.6406C115.156 25.2661 115.406 24.7917 115.406 24.6169C115.406 24.4172 115.505 24.0677 115.655 23.818C115.78 23.5933 116.08 22.9691 116.305 22.4448C116.704 21.546 116.704 21.4961 116.255 21.1465C115.63 20.6971 113.033 20.4225 111.385 20.6472C110.211 20.822 109.936 20.9718 108.787 22.1702C108.088 22.9192 107.439 23.4435 107.339 23.3436C107.239 23.2687 107.164 22.5447 107.164 21.7707C107.164 20.9967 107.039 20.2477 106.864 20.073C106.665 19.8732 105.741 19.7734 104.367 19.7734C102.469 19.7734 102.144 19.8233 101.92 20.2727ZM35.7385 20.8969C33.5658 21.521 32.2172 22.295 30.7437 23.7681C29.0205 25.5157 28.1214 27.1636 27.597 29.6103C27.2224 31.3081 27.1974 31.8074 27.4721 33.4802C28.1963 37.8993 30.9685 41.1949 35.0642 42.5182C36.3129 42.9426 37.1121 43.0175 39.11 42.9426C41.3077 42.8427 41.8072 42.7429 43.3556 42.0188C47.8509 39.8717 50.2983 35.1779 49.5491 30.0347C48.9248 25.8403 46.3774 22.8443 41.8821 21.0467C40.6584 20.5473 37.2869 20.4724 35.7385 20.8969ZM40.6584 26.5394C41.6324 26.8889 43.2806 28.5867 43.7551 29.7102C44.4544 31.333 44.3795 32.881 43.5054 34.4039C41.2078 38.3986 36.3379 38.4985 33.7156 34.6286C32.5168 32.856 32.5918 30.609 33.8904 28.7115C35.4388 26.4894 38.161 25.6156 40.6584 26.5394ZM113.582 37.0005C111.959 38.0241 111.41 40.3211 112.409 41.919C113.408 43.5917 115.206 44.1161 116.954 43.2672C120.4 41.6194 119.227 36.4512 115.406 36.5261C114.781 36.5261 113.982 36.7259 113.582 37.0005Z" fill="#9B99AB"/>
</g>
<defs>
<clipPath id="clip0_1_13765">
<rect width="120" height="56" fill="white" transform="translate(0.400391)"/>
</clipPath>
</defs>
</svg>
