<svg width="188" height="56" viewBox="0 0 188 56" fill="none" xmlns="http://www.w3.org/2000/svg">
<g clip-path="url(#clip0_1_13767)">
<path d="M0.636719 55.9444H187.584V0H0.636719V55.9444Z" fill="#9B99AB"/>
<path d="M135.823 55.993C134.94 55.6457 132.494 54.4789 132.18 52.1661L127.632 55.9999L117.048 55.993C116.001 55.7221 114.094 54.847 113.495 52.048L109.119 55.993L99.8817 56.0069L95.9397 44.1582L91.0553 55.9999H82.2064L83.8745 52.0272C80.3214 54.7637 79.2219 55.7152 78.9003 56.0138L71.3829 56.0069C68.5554 54.7984 68.3534 51.9994 68.3534 51.9994C64.6882 54.7775 63.5513 55.7082 63.2072 56.0069L56.6472 55.9999C54.2312 54.9512 53.4682 52.1175 53.4682 52.1175C49.803 54.6178 47.6712 55.9999 47.6712 55.9999H35.7556L42.8242 39.102H36.526L29.6968 55.993H20.9078L28.9712 35.1571H23.2116L14.6321 55.993H5.83561L15.9336 31.2052H0.599609V24.0515H27.4678L25.9568 28.2465H40.5054L38.8598 32.5595H53.5356L46.8036 49.7005H53.6627L59.0184 37.3726C59.0184 37.3726 61.0754 32.5595 65.885 32.5595H84.413L77.8306 49.8255H84.6973L95.259 24.0515H103.622L97.1739 41.0675L106.786 32.5526H116.809L104.729 43.5262L106.509 49.9367L113.929 49.8742L121.334 32.4206H129.689L122.972 49.8255H132.584L137.371 38.1088H131.739L133.946 32.4345H139.294L142.996 24.0515H151.636L148.345 32.1914H153.431L151.374 37.9907H145.876L141.351 49.7075H150.963L155.488 38.4839C155.488 38.4839 157.418 32.6915 163.043 32.5665H181.144L174.435 49.7005H187.6V55.993H170.037C170.037 55.993 165.923 55.4999 165.227 52.048L160.963 55.993H154.942C154.942 55.993 151.09 55.4999 150.544 52.048L146.153 55.993H135.823ZM165.309 49.9506L169.962 39.102H164.053L159.4 49.9506H165.309ZM68.72 49.9506L73.38 39.102H67.4932L62.8182 49.9506H68.72Z" fill="white"/>
<path d="M122 30.4204L124.468 24.0098H132.846L130.378 30.4204H122ZM177.838 20.565H176.492V19.3843H177.95C178.235 19.3843 178.721 19.4259 178.721 19.9677C178.721 20.4816 178.272 20.565 177.838 20.565ZM179.282 22.0304L179.244 21.4054C179.222 20.9261 178.983 20.8358 178.743 20.7525C179.005 20.6205 179.319 20.433 179.319 19.9191C179.319 19.1829 178.609 18.9814 177.898 18.9814H175.916V22.461H176.492V20.9747H177.898C178.609 20.9747 178.683 21.3081 178.683 21.5998C178.683 21.7318 178.706 22.2527 178.781 22.468H179.506V22.3916C179.319 22.2944 179.282 22.2249 179.282 22.0304Z" fill="white"/>
<path d="M177.577 23.6418C176.739 23.6418 175.954 23.3362 175.355 22.7875C174.757 22.2319 174.42 21.5026 174.42 20.7178C174.42 19.933 174.757 19.1968 175.355 18.6481C175.954 18.0925 176.739 17.7938 177.577 17.7938C178.415 17.7938 179.222 18.0994 179.806 18.6481C180.404 19.2037 180.741 19.933 180.741 20.7178C180.733 22.3291 179.32 23.6418 177.577 23.6418ZM180.06 18.412C179.387 17.7938 178.512 17.4604 177.569 17.4604C175.647 17.4604 174.076 18.919 174.076 20.7109C174.076 21.579 174.428 22.3986 175.108 23.0097C175.759 23.6209 176.649 23.9613 177.577 23.9613C178.512 23.9613 179.387 23.6209 180.06 23.0097C180.718 22.3916 181.07 21.579 181.07 20.7109C181.07 19.8427 180.718 19.0231 180.06 18.412Z" fill="white"/>
</g>
<defs>
<clipPath id="clip0_1_13767">
<rect width="187" height="56" fill="white" transform="translate(0.599609)"/>
</clipPath>
</defs>
</svg>
