<svg width="203" height="56" viewBox="0 0 203 56" fill="none" xmlns="http://www.w3.org/2000/svg">
<g clip-path="url(#clip0_1_13775)">
<path d="M29.6277 23.5271C28.033 23.5271 26.774 24.9013 26.774 26.612C26.774 28.3226 28.061 29.6968 29.6277 29.6968C31.2224 29.6968 32.4813 28.3226 32.4813 26.612C32.4813 24.9013 31.1944 23.5271 29.6277 23.5271ZM19.4161 23.5271C17.8215 23.5271 16.5625 24.9013 16.5625 26.612C16.5625 28.3226 17.8494 29.6968 19.4161 29.6968C21.0108 29.6968 22.2698 28.3226 22.2698 26.612C22.2978 24.9013 21.0108 23.5271 19.4161 23.5271Z" fill="#9B99AB"/>
<path d="M43.2242 0.194336H5.73525C2.57387 0.194336 0 2.7744 0 5.94339V43.5226C0 46.6915 2.57387 49.2716 5.73525 49.2716H37.461L35.9782 44.1395L39.5593 47.4487L42.9445 50.5616L48.9875 55.8059V5.94339C48.9595 2.7744 46.3856 0.194336 43.2242 0.194336ZM32.4252 36.5115C32.4252 36.5115 31.418 35.3056 30.5787 34.268C34.2437 33.2303 35.6425 30.9588 35.6425 30.9588C34.4955 31.716 33.4044 32.2488 32.4252 32.6134C31.0263 33.2023 29.6834 33.5669 28.3685 33.8193C25.6827 34.3241 23.2208 34.1838 21.1225 33.7912C19.5278 33.4827 18.157 33.0621 17.0099 32.5853C16.3665 32.3329 15.667 32.0244 14.9676 31.6318C14.8837 31.5757 14.7998 31.5477 14.7158 31.4916C14.6599 31.4636 14.6319 31.4355 14.6039 31.4355C14.1003 31.1551 13.8206 30.9588 13.8206 30.9588C13.8206 30.9588 15.1635 33.1743 18.7165 34.2399C17.8772 35.3056 16.8421 36.5396 16.8421 36.5396C10.6592 36.3433 8.30912 32.3049 8.30912 32.3049C8.30912 23.3588 12.3378 16.0954 12.3378 16.0954C16.3665 13.0946 20.1713 13.1788 20.1713 13.1788L20.4511 13.5153C15.4152 14.9456 13.1211 17.161 13.1211 17.161C13.1211 17.161 13.7366 16.8245 14.7718 16.3758C17.7653 15.0577 20.1433 14.7212 21.1225 14.609C21.2904 14.581 21.4303 14.5529 21.5981 14.5529C23.3047 14.3286 25.2351 14.2725 27.2494 14.4969C29.9072 14.8053 32.7609 15.5906 35.6705 17.161C35.6705 17.161 33.4603 15.0577 28.7042 13.6275L29.0959 13.1788C29.0959 13.1788 32.9287 13.0946 36.9294 16.0954C36.9294 16.0954 40.9581 23.3588 40.9581 32.3049C40.9581 32.2768 38.608 36.3152 32.4252 36.5115ZM74.6702 12.1972H65.3819V22.6577L71.5648 28.2385V18.0865H74.866C76.9643 18.0865 77.9995 19.0961 77.9995 20.7227V28.4909C77.9995 30.1174 77.0203 31.2112 74.866 31.2112H65.3539V37.1285H74.6422C79.6221 37.1565 84.2942 34.6606 84.2942 28.9396V20.5824C84.3222 14.7493 79.6501 12.1972 74.6702 12.1972ZM123.35 28.9396V20.3581C123.35 17.2732 128.889 16.5721 130.568 19.657L135.688 17.5817C133.673 13.1507 130.008 11.8607 126.959 11.8607C121.979 11.8607 117.055 14.7493 117.055 20.3581V28.9396C117.055 34.6045 121.979 37.437 126.847 37.437C129.98 37.437 133.729 35.8945 135.8 31.8562L130.316 29.3322C128.973 32.7816 123.35 31.9403 123.35 28.9396ZM106.424 21.5359C104.494 21.1153 103.207 20.4142 103.123 19.2083C103.235 16.3197 107.683 16.2075 110.285 18.9839L114.397 15.8149C111.823 12.674 108.914 11.8327 105.92 11.8327C101.36 11.8327 96.9398 14.4127 96.9398 19.2924C96.9398 24.0319 100.577 26.5839 104.577 27.2009C106.62 27.4813 108.886 28.2946 108.83 29.6968C108.662 32.361 103.179 32.2208 100.689 29.192L96.716 32.9219C99.038 35.9226 102.199 37.437 105.165 37.437C109.725 37.437 114.789 34.8008 114.985 29.9772C115.265 23.8916 110.844 22.3492 106.424 21.5359ZM87.6794 37.1004H93.9463V12.1972H87.6794V37.1004ZM193.348 12.1972H184.06V22.6577L190.243 28.2385V18.0865H193.544C195.642 18.0865 196.677 19.0961 196.677 20.7227V28.4909C196.677 30.1174 195.698 31.2112 193.544 31.2112H184.032V37.1285H193.348C198.328 37.1565 203 34.6606 203 28.9396V20.5824C203 14.7493 198.328 12.1972 193.348 12.1972ZM147.774 11.8607C142.626 11.8607 137.506 14.6651 137.506 20.4142V28.9115C137.506 34.6045 142.654 37.465 147.83 37.465C152.977 37.465 158.097 34.6045 158.097 28.9115V20.4142C158.097 14.6932 152.921 11.8607 147.774 11.8607ZM151.802 28.9115C151.802 30.7064 149.788 31.6318 147.802 31.6318C145.787 31.6318 143.773 30.7625 143.773 28.9115V20.4142C143.773 18.5913 145.731 17.6098 147.69 17.6098C149.732 17.6098 151.802 18.4791 151.802 20.4142V28.9115ZM180.591 20.4142C180.451 14.581 176.478 12.2253 171.358 12.2253H161.426V37.1285H167.777V29.22H168.896L174.659 37.1285H182.493L175.723 28.575C178.716 27.6215 180.591 25.0134 180.591 20.4142ZM171.47 23.7795H167.777V18.0865H171.47C175.415 18.0865 175.415 23.7795 171.47 23.7795Z" fill="#9B99AB"/>
</g>
<defs>
<clipPath id="clip0_1_13775">
<rect width="203" height="56" fill="white"/>
</clipPath>
</defs>
</svg>
