<svg width="155" height="56" viewBox="0 0 155 56" fill="none" xmlns="http://www.w3.org/2000/svg">
<g clip-path="url(#clip0_1_13773)">
<path d="M26.5997 22.8553C26.0322 24.4594 22.457 26.1346 13.6748 24.1452L14.8178 29.341C23.5995 30.9397 28.8047 29.6246 31.778 26.4979C33.9799 24.1804 34.4115 21.1829 32.6019 18.889C30.688 16.4608 26.4484 14.7 21.0947 14.7C13.4368 14.7 7.97949 16.9227 4.94899 25.2635L0.875 36.4772H8.00231L12.0563 25.1358C13.7196 20.4715 17.2151 19.6993 21.0947 19.6993C25.1633 19.6993 27.1269 21.3771 26.5997 22.8553ZM97.1706 27.7767L96.8947 27.6581C98.4898 27.0212 100.221 26.6764 101.941 26.6764C102.984 26.6764 105.306 26.8537 106.285 27.4145C106.523 27.5484 106.741 27.7595 106.624 28.0216C106.191 28.9963 99.8341 28.9418 97.1706 27.7767ZM110.19 25.1546C108.506 24.2523 105.728 23.5332 103.012 23.4223C97.3778 23.1903 90.9535 25.1152 89.6743 29.666C88.9344 32.2836 91.4669 35.819 98.061 36.822C101.36 37.3294 106.602 37.2012 110.375 35.9521L111.784 32.0667C104.133 34.7002 94.1337 33.9357 94.4681 29.9907C98.1698 32.3701 103.571 32.1441 107.57 31.4882C114.497 30.3555 114.396 27.4058 110.19 25.1546ZM121.869 27.7767L121.597 27.6581C123.189 27.0212 124.922 26.6764 126.64 26.6764C127.687 26.6764 130.004 26.8537 130.984 27.4145C131.222 27.5484 131.439 27.7595 131.322 28.0216C130.891 28.9963 124.535 28.9418 121.869 27.7767ZM134.889 25.1546C133.206 24.2523 130.427 23.5332 127.71 23.4223C122.079 23.1903 115.655 25.1152 114.373 29.666C113.635 32.2836 116.169 35.819 122.76 36.822C126.058 37.3294 131.303 37.2012 135.074 35.9521L136.485 32.0667C128.834 34.7002 118.835 33.9357 119.169 29.9907C122.872 32.3701 128.272 32.1441 132.27 31.4882C139.195 30.3555 139.097 27.4058 134.889 25.1546ZM140.091 28.4948L137.264 36.4801H143.789L145.964 30.335C146.499 28.7766 146.952 27.6105 148.855 27.6105H153.439L154.725 23.9317H146.28C143.455 23.9314 141.178 25.3346 140.091 28.4948ZM30.7886 36.4801H37.5445L42.1101 23.9314H35.3549L30.7886 36.4801ZM74.6231 29.7277C75.2517 28.0013 77.1505 27.2021 78.8135 27.2021C80.462 27.2021 82.0402 28.1752 81.4293 29.8561L79.0169 36.4798H85.5428L87.9902 29.7513C89.2598 26.2574 86.5099 23.3634 80.3481 23.3634C73.4891 23.3634 69.6018 25.6085 68.1033 29.7207L65.6452 36.4803H72.1666L74.6231 29.7277ZM54.4973 27.3297C57.1336 27.4412 59.2583 28.7694 58.8798 30.4963C58.5167 32.1608 55.9468 33.294 53.2804 33.1794C50.6433 33.0697 48.5209 31.7356 48.8961 30.0097C49.2626 28.3489 51.8304 27.2134 54.4973 27.3297ZM55.4164 23.4284C48.6209 23.1397 42.5664 26.0496 41.7521 29.7708C40.9492 33.4324 45.5394 36.7909 52.3613 37.0797C59.1539 37.3694 65.2111 34.46 66.0266 30.7378C66.8272 27.0769 62.2367 23.7151 55.4164 23.4284Z" fill="#9B99AB"/>
</g>
<defs>
<clipPath id="clip0_1_13773">
<rect width="154" height="56" fill="white" transform="translate(0.799805)"/>
</clipPath>
</defs>
</svg>
