<svg width="40" height="40" viewBox="0 0 40 40" fill="none" xmlns="http://www.w3.org/2000/svg">
<path d="M19.9997 9.99992V36.6666M19.9997 9.99992H14.1068C13.2385 9.99992 12.4058 9.64873 11.7919 9.02361C11.1779 8.39849 10.833 7.55064 10.833 6.66659C10.833 5.78253 11.1779 4.93468 11.7919 4.30956C12.4058 3.68444 13.2385 3.33325 14.1068 3.33325C18.6902 3.33325 19.9997 9.99992 19.9997 9.99992ZM19.9997 9.99992H25.8925C26.7608 9.99992 27.5935 9.64873 28.2075 9.02361C28.8214 8.39849 29.1663 7.55064 29.1663 6.66659C29.1663 5.78253 28.8214 4.93468 28.2075 4.30956C27.5935 3.68444 26.7608 3.33325 25.8925 3.33325C21.3092 3.33325 19.9997 9.99992 19.9997 9.99992ZM33.333 18.3333V31.3333C33.333 33.2001 33.333 34.1335 32.9697 34.8466C32.6501 35.4738 32.1402 35.9837 31.513 36.3033C30.7999 36.6666 29.8665 36.6666 27.9997 36.6666L11.9997 36.6666C10.1328 36.6666 9.19941 36.6666 8.48637 36.3033C7.85917 35.9837 7.34923 35.4738 7.02965 34.8466C6.66634 34.1335 6.66634 33.2001 6.66634 31.3333V18.3333M3.33301 12.6666L3.33301 15.6666C3.33301 16.6 3.33301 17.0667 3.51466 17.4232C3.67445 17.7368 3.92942 17.9918 4.24302 18.1516C4.59954 18.3333 5.06625 18.3333 5.99968 18.3333L33.9997 18.3333C34.9331 18.3333 35.3998 18.3333 35.7563 18.1516C36.0699 17.9918 36.3249 17.7368 36.4847 17.4232C36.6663 17.0667 36.6663 16.6 36.6663 15.6666V12.6666C36.6663 11.7332 36.6663 11.2665 36.4847 10.9099C36.3249 10.5963 36.0699 10.3414 35.7563 10.1816C35.3998 9.99992 34.9331 9.99992 33.9997 9.99992L5.99968 9.99992C5.06625 9.99992 4.59954 9.99992 4.24302 10.1816C3.92942 10.3414 3.67445 10.5963 3.51466 10.9099C3.33301 11.2665 3.33301 11.7332 3.33301 12.6666Z" stroke="#43A548" stroke-width="3" stroke-linecap="round" stroke-linejoin="round"/>
</svg>
